<?xml version="1.0" encoding="utf-8"?>
<!-- Generator: Adobe Illustrator 15.1.0, SVG Export Plug-In . SVG Version: 6.00 Build 0)  -->
<!DOCTYPE svg PUBLIC "-//W3C//DTD SVG 1.1//EN" "http://www.w3.org/Graphics/SVG/1.1/DTD/svg11.dtd">
<svg version="1.1" id="Layer_1" xmlns="http://www.w3.org/2000/svg" xmlns:xlink="http://www.w3.org/1999/xlink" x="0px" y="0px"
	 width="512px" height="512px" viewBox="0 0 512 512" enable-background="new 0 0 512 512" xml:space="preserve">
<path fill-rule="evenodd" clip-rule="evenodd" fill="#333333" d="M256,448c-106.039,0-192-85.961-192-192
	c0-106.039,85.961-192,192-192c106.039,0,192,85.961,192,192C448,362.039,362.039,448,256,448z M200.225,226.696l-3.758,15.351
	c2.734-1.023,6.012-2.102,9.834-3.24c3.822-1.135,7.556-1.705,11.205-1.705c7.411,0,12.427,1.252,15.049,3.752
	c2.621,2.502,3.932,6.938,3.932,13.305c0,3.525-0.426,7.419-1.279,11.684c-0.854,4.264-1.91,8.784-3.169,13.56l-14.079,49.806
	c-1.253,5.231-2.162,9.922-2.729,14.072c-0.57,4.151-0.853,8.216-0.853,12.195c0,10.233,3.78,18.677,11.342,25.329
	c7.562,6.652,18.166,9.978,31.812,9.978c8.869,0,16.656-1.167,23.367-3.496c6.708-2.329,15.692-5.714,26.95-10.148l3.752-15.352
	c-1.933,0.912-5.056,1.962-9.37,3.155c-4.315,1.194-8.174,1.791-11.58,1.791c-7.271,0-12.38-1.193-15.333-3.581
	c-2.952-2.389-4.426-6.879-4.426-13.476c0-2.614,0.455-6.481,1.367-11.599c0.911-5.116,1.939-9.663,3.08-13.645l14.026-49.636
	c1.365-4.546,2.303-9.552,2.814-15.01s0.768-9.267,0.768-11.428c0-10.46-3.672-18.96-11.012-25.499
	c-7.343-6.538-17.787-9.809-31.334-9.809c-7.516,0-15.483,1.338-23.909,4.009C218.268,219.732,209.447,222.944,200.225,226.696z
	 M305.374,131.349c-6.54-6.14-14.413-9.21-23.624-9.21c-9.21,0-17.115,3.07-23.708,9.21c-6.597,6.141-9.894,13.534-9.894,22.174
	c0,8.643,3.297,16.006,9.894,22.088c6.593,6.084,14.498,9.125,23.708,9.125c9.211,0,17.084-3.041,23.624-9.125
	c6.537-6.082,9.808-13.445,9.808-22.088C315.182,144.883,311.911,137.49,305.374,131.349z"/>
</svg>
