<?xml version="1.0" encoding="utf-8"?>
<!-- Generator: Adobe Illustrator 15.1.0, SVG Export Plug-In . SVG Version: 6.00 Build 0)  -->
<!DOCTYPE svg PUBLIC "-//W3C//DTD SVG 1.1//EN" "http://www.w3.org/Graphics/SVG/1.1/DTD/svg11.dtd">
<svg version="1.1" id="Layer_1" xmlns="http://www.w3.org/2000/svg" xmlns:xlink="http://www.w3.org/1999/xlink" x="0px" y="0px"
	 width="512px" height="512px" viewBox="0 0 512 512" enable-background="new 0 0 512 512" xml:space="preserve">
		<path fill-rule="evenodd" clip-rule="evenodd" fill="#333333" d="M498.774,434.894L383.537,319.665
			c20.57-32.262,32.494-70.572,32.494-111.67c0-114.871-93.133-208.004-208.019-208.004C93.133-0.01,0,93.124,0,207.995
			C0,322.877,93.133,416,208.013,416c41.079,0,79.373-11.911,111.627-32.461l115.243,115.24c17.645,17.641,46.244,17.641,63.891,0
			C516.41,481.14,516.41,452.533,498.774,434.894z M92.643,208.53c0-64.01,51.895-115.897,115.904-115.897
			c64.018,0,115.908,51.888,115.908,115.897c0,64.011-51.891,115.897-115.908,115.897C144.538,324.427,92.643,272.541,92.643,208.53
			z"/>
</svg>
