<?xml version="1.0" encoding="utf-8"?>
<!-- Generator: Adobe Illustrator 15.1.0, SVG Export Plug-In . SVG Version: 6.00 Build 0)  -->
<!DOCTYPE svg PUBLIC "-//W3C//DTD SVG 1.1//EN" "http://www.w3.org/Graphics/SVG/1.1/DTD/svg11.dtd">
<svg version="1.1" id="Layer_1" xmlns="http://www.w3.org/2000/svg" xmlns:xlink="http://www.w3.org/1999/xlink" x="0px" y="0px"
	 width="512px" height="512px" viewBox="0 0 512 512" enable-background="new 0 0 512 512" xml:space="preserve">
<path fill-rule="evenodd" clip-rule="evenodd" fill="#333333" d="M479.991,479.99l-447.974,0.016c0,0-1.755-34.56,24.279-45.393
	c19.255-8.013,117.529-51.431,122.687-54.243c0.102-0.121,0.205-0.234,0.311-0.34c0,0,1.772,0.754,9.008,1.566
	c1.811-10.799,3.623-27.189,4.567-51.765c-0.192-0.11-0.308-0.18-0.308-0.18l-12.442-39.697c-0.175,2.43-0.999,4.848-3.353,5.946
	c-5.592,2.61-7.455-4.467-7.455-4.467c-4.292-15.814-9.313-21.404-12.295-26.046c-2.889-4.495-10.069-21.6-6.348-29.778
	c4-8.773,9.31-8.172,12.282-6.907c-5.735-38.456-11.764-135.813,70.943-149.634c5.001-1.082,13.071-3.295,30.712-15.069
	c0,0,16.027,4.851,25.706,11.173c0,0,6.35,0,10.076-4.833c0,0,7.455,7.061,7.455,11.901c0,0,8.424,1.972,13.046,0.377
	c0,0,8.138,3.7,12.244,29.093c25.421,35.844,19.232,90.444,14.138,116.984c2.974-1.258,8.265-1.836,12.255,6.916
	c3.728,8.178-3.46,25.283-6.349,29.778c-2.982,4.642-8.003,10.231-12.288,26.046c0,0-1.864,7.077-7.455,4.467
	c-2.7-1.262-3.389-4.263-3.387-7.025l-11.287,36.815c0.815,27.237,2.589,44.746,4.418,55.967c7.778-0.835,9.685-1.628,9.685-1.628
	c0.216,0.215,0.426,0.457,0.634,0.724c9.425,5.135,103.334,46.101,121.981,53.859C481.513,445.446,479.991,479.99,479.991,479.99z"
	/>
</svg>
